<svg xmlns="http://www.w3.org/2000/svg" viewBox="0 0 96 60">
  <defs>
    <style>
      .cls-1 {
        fill: #e2b129;
      }

      .cls-2 {
        fill: #efc029;
      }

      .cls-3 {
        fill: none;
        stroke: #efc029;
        stroke-miterlimit: 10;
        stroke-width: 1.7px;
      }

      .cls-4 {
        fill: #fcd157;
      }

      .cls-5 {
        fill: #fbe28b;
      }
    </style>
  </defs>
  <g>
    <g>
      <g>
        <path class="cls-1" d="M61.36,10.22H76.8v7.85c0,3.54-1.43,6.76-4.39,9.84a36.88,36.88,0,0,1-9.77,6.92l-1.28-.57v-24M55.22,4.09V38.24l7.54,3.36c10.65-4.94,20.18-12.39,20.18-23.53V5.85a1.76,1.76,0,0,0-1.77-1.76Z"/>
        <path class="cls-2" d="M62.36,35.23c2.54-2.45,2.2-1.93,3.26-2a.25.25,0,0,1,.27.28c-.1,1,2,2.65-.27,5.09-.11.12,1.38,1.1,1.54,1.11A12.45,12.45,0,0,1,74,42.81a.25.25,0,0,1,0,.39,12.23,12.23,0,0,1-7.34,2.85,12.15,12.15,0,0,1-7.23-3.12.65.65,0,0,1-.19-.49A12.19,12.19,0,0,1,62.36,35.23Z"/>
        <path class="cls-3" d="M62.56,41.66c10.65-4.93,20.17-12.38,20.17-23.53V5.92"/>
        <g>
          <path class="cls-2" d="M80.13,29.35a.56.56,0,0,1-.45-.13,9.51,9.51,0,0,1-2.88-5.4,9.48,9.48,0,0,1,1.71-5.88.21.21,0,0,1,.34,0,9.7,9.7,0,0,1,2.83,5c0,.15.11.17.21.07A9.74,9.74,0,0,1,87,20.33a.23.23,0,0,1,.27.22,9.49,9.49,0,0,1-1.78,5.86A9.42,9.42,0,0,1,80.13,29.35Z"/>
          <path class="cls-2" d="M82.21,19.05A8.27,8.27,0,0,1,78.8,15a8.29,8.29,0,0,1,.39-5.31.23.23,0,0,1,.33-.11,8.53,8.53,0,0,1,3.29,3.75c0,.14.14.15.22,0a8.58,8.58,0,0,1,3.85-3.16.23.23,0,0,1,.31.16,8.27,8.27,0,0,1-.48,5.3,8.25,8.25,0,0,1-4,3.48A.59.59,0,0,1,82.21,19.05Z"/>
        </g>
        <path class="cls-2" d="M82.45,10.41a7.63,7.63,0,0,1-2.39-5A8.13,8.13,0,0,1,82.5.27a.38.38,0,0,1,.55,0,7.75,7.75,0,0,1,2.39,5A8.18,8.18,0,0,1,83,10.4.39.39,0,0,1,82.45,10.41Z"/>
        <path class="cls-1" d="M34.85,10.22v24l-1.29.57a36.88,36.88,0,0,1-9.77-6.92c-2.95-3.08-4.39-6.3-4.39-9.84V10.22H34.85M41,4.09H15a1.76,1.76,0,0,0-1.76,1.76V18.07c0,11.14,9.52,18.59,20.17,23.53L41,38.24V4.09Z"/>
        <path class="cls-3" d="M13.27,5.85V18.07c0,11.14,9.52,18.59,20.17,23.53"/>
      </g>
      <g>
        <path class="cls-2" d="M33.64,35.16c-2.54-2.44-2.2-1.92-3.26-2a.25.25,0,0,0-.27.28c.1,1-2,2.66.27,5.1.11.11-1.38,1.09-1.54,1.1A12.52,12.52,0,0,0,22,42.74a.25.25,0,0,0,0,.39A12.11,12.11,0,0,0,29.39,46a12.09,12.09,0,0,0,7.23-3.12.63.63,0,0,0,.19-.49A12.19,12.19,0,0,0,33.64,35.16Z"/>
        <path class="cls-2" d="M25.51,37.27a10.25,10.25,0,0,0-.19-6.61,10.27,10.27,0,0,0-4.77-4.58.23.23,0,0,0-.32.14,10.57,10.57,0,0,0,.05,6.25c.06.14,0,.21-.15.16a10.58,10.58,0,0,0-6.24.25.23.23,0,0,0-.13.33,10.27,10.27,0,0,0,4.81,4.54,10.26,10.26,0,0,0,6.61-.13A.6.6,0,0,0,25.51,37.27Z"/>
        <path class="cls-2" d="M15.87,29.29a.57.57,0,0,0,.45-.14,9.51,9.51,0,0,0,2.88-5.4,9.42,9.42,0,0,0-1.71-5.87.22.22,0,0,0-.34,0,9.74,9.74,0,0,0-2.83,5c0,.14-.11.17-.21.06A9.71,9.71,0,0,0,9,20.27a.22.22,0,0,0-.27.22,9.51,9.51,0,0,0,1.78,5.86A9.49,9.49,0,0,0,15.87,29.29Z"/>
        <path class="cls-2" d="M13.79,19a8.27,8.27,0,0,0,3.41-4.09,8.3,8.3,0,0,0-.39-5.31.22.22,0,0,0-.33-.1,8.47,8.47,0,0,0-3.29,3.75c0,.13-.14.14-.22,0a8.51,8.51,0,0,0-3.85-3.16.22.22,0,0,0-.31.16,8.27,8.27,0,0,0,.48,5.3,8.27,8.27,0,0,0,4,3.47A.55.55,0,0,0,13.79,19Z"/>
      </g>
      <g>
        <path class="cls-1" d="M62.9,41.6Q48.17,34,33.43,41.6q8.88,5.79,5.74,11.58C38.17,55,58,54.87,57,52.94Q54.21,47.27,62.9,41.6Z"/>
        <path class="cls-4" d="M54.58,45.9h-13a14,14,0,0,1-14-13L25.36,2.31A2.07,2.07,0,0,1,27.43.09H68.78a2.07,2.07,0,0,1,2.06,2.22L68.56,32.92A14,14,0,0,1,54.58,45.9Z"/>
        <path class="cls-5" d="M67.1,11.26A8.09,8.09,0,0,1,60,4.18a.06.06,0,0,0-.12,0,8.09,8.09,0,0,1-7.07,7.08c-.08,0-.08.1,0,.11a8.07,8.07,0,0,1,7.07,7.08.06.06,0,0,0,.12,0,8.07,8.07,0,0,1,7.08-7.08C67.17,11.36,67.17,11.26,67.1,11.26Z"/>
        <path class="cls-4" d="M67.91,50.35H28.29a3.09,3.09,0,0,0-3.09,3.1V58a2,2,0,0,0,1.95,1.95h41.9A2,2,0,0,0,71,58V53.45A3.1,3.1,0,0,0,67.91,50.35Z"/>
        <path class="cls-5" d="M48.1,18.07V5.85a1.74,1.74,0,0,0-1.24-1.67H30.07a.43.43,0,0,0-.43.47l2.08,28a9.69,9.69,0,0,0,1.16,4,1.28,1.28,0,0,0,1.53.6A20.18,20.18,0,0,0,48.1,18.07Z"/>
      </g>
    </g>
    <path class="cls-2" d="M13.55,10.35a7.65,7.65,0,0,0,2.39-5C15.93,3,14.19.92,13.5.2a.4.4,0,0,0-.55,0,7.75,7.75,0,0,0-2.39,5A8.21,8.21,0,0,0,13,10.34.39.39,0,0,0,13.55,10.35Z"/>
    <path class="cls-2" d="M70.49,37.34a10.26,10.26,0,0,1,.19-6.61,10.36,10.36,0,0,1,4.77-4.59.23.23,0,0,1,.32.15,10.56,10.56,0,0,1,0,6.25c-.06.13,0,.2.15.16a10.42,10.42,0,0,1,6.24.25.22.22,0,0,1,.13.32,10.27,10.27,0,0,1-4.81,4.54,10.19,10.19,0,0,1-6.61-.13A.58.58,0,0,1,70.49,37.34Z"/>
  </g>
</svg>
