<svg xmlns="http://www.w3.org/2000/svg" width="48" height="50.132" viewBox="0 0 48 50.132">
  <g id="ico_promotion" transform="translate(-12.493 -10.827)">
    <path id="Path_508" data-name="Path 508" d="M44.428,39.738a1.9,1.9,0,1,1-1.9-1.9A1.9,1.9,0,0,1,44.428,39.738Zm-12.07-7.712a1.9,1.9,0,1,0-1.9,1.9A1.9,1.9,0,0,0,32.358,32.026Zm27.975,9.593a3.271,3.271,0,0,1-1.188,3.656l-4.01,2.913a3.268,3.268,0,0,0-1.188,1.635l-1.532,4.715a3.269,3.269,0,0,1-3.11,2.259H44.348a3.272,3.272,0,0,0-1.922.625l-4.01,2.913a3.271,3.271,0,0,1-3.844,0l-4.01-2.913a3.272,3.272,0,0,0-1.922-.625H23.682a3.27,3.27,0,0,1-3.11-2.259L19.04,49.823a3.272,3.272,0,0,0-1.188-1.635l-4.011-2.913a3.269,3.269,0,0,1-1.188-3.656L14.186,36.9a3.265,3.265,0,0,0,0-2.021l-1.532-4.715a3.271,3.271,0,0,1,1.188-3.656l4.01-2.913a3.268,3.268,0,0,0,1.188-1.635l1.532-4.715a3.269,3.269,0,0,1,3.11-2.259h4.957a3.272,3.272,0,0,0,1.922-.625l4.01-2.913a3.271,3.271,0,0,1,3.844,0l4.01,2.913a3.272,3.272,0,0,0,1.922.625H49.3a3.27,3.27,0,0,1,3.11,2.259l1.532,4.715A3.272,3.272,0,0,0,55.134,23.6l4.01,2.913a3.269,3.269,0,0,1,1.188,3.656L58.8,34.883a3.265,3.265,0,0,0,0,2.021Zm-29.875-5.01a4.582,4.582,0,1,0-4.582-4.582A4.582,4.582,0,0,0,30.458,36.608Zm12.9-7.238a1.117,1.117,0,1,0-1.719-1.428L29.618,42.417a1.117,1.117,0,1,0,1.719,1.428Zm3.757,10.368a4.582,4.582,0,1,0-4.582,4.582A4.582,4.582,0,0,0,47.111,39.738Z" transform="translate(0 0)" fill="#fff"/>
  </g>
</svg>
