<svg xmlns="http://www.w3.org/2000/svg" viewBox="0 0 96 60">
  <defs>
    <style>
      .cls-1, .cls-2 {
        fill: #52b1dc;
      }

      .cls-2 {
        fill-rule: evenodd;
      }

      .cls-3 {
        fill: #70c8ee;
      }

      .cls-4 {
        fill: #95dcff;
      }
    </style>
  </defs>
  <g>
    <path class="cls-1" d="M61.25,10.22H76.7v7.85c0,3.54-1.43,6.76-4.39,9.84a36.88,36.88,0,0,1-9.77,6.92l-1.29-.57v-24M55.12,4.09V38.24l7.54,3.36c10.65-4.94,20.18-12.39,20.18-23.53V5.85a1.77,1.77,0,0,0-1.77-1.76Z"/>
    <path class="cls-1" d="M34.75,10.22v24l-1.29.57a36.88,36.88,0,0,1-9.77-6.92c-3-3.08-4.39-6.3-4.39-9.84V10.22H34.75m6.13-6.13H14.93a1.77,1.77,0,0,0-1.77,1.76V18.07c0,11.14,9.53,18.59,20.18,23.53l7.54-3.36V4.09Z"/>
    <path class="cls-2" d="M46.58,42.55C28.62,42.55,15,27.49,15,8.93,15,7,16.35,6,16.66,4.09H6.89l3.86,4.64L7.15,14l4.57,3.61-2.29,6,5.28,2.37-.84,6.37,5.68,1,.66,6.38L26,39.26l2.12,6.05,5.48-1.84,4.24-.36,4.1,2.56L46.49,50l4-4.26Z"/>
    <path class="cls-2" d="M45.49,45.74l4,4.26,4.6-4.33,4.1-2.56,4.24.36,5.48,1.84,2.12-6.05,5.74.43.66-6.38,5.68-1-.84-6.37,5.28-2.37-2.29-6L88.85,14l-3.6-5.24,3.86-4.64H79.34C79.65,6,81,7,81,8.93c0,18.56-13.65,33.62-31.61,33.62Z"/>
    <g>
      <path class="cls-1" d="M62.8,41.6Q48.07,34,33.33,41.6q8.88,5.79,5.74,11.58c-1,1.85,18.82,1.69,17.86-.24Q54.11,47.27,62.8,41.6Z"/>
      <path class="cls-3" d="M54.48,45.9h-13a14,14,0,0,1-14-13L25.26,2.31A2.07,2.07,0,0,1,27.32.09H68.68a2.07,2.07,0,0,1,2.06,2.22L68.46,32.92A14,14,0,0,1,54.48,45.9Z"/>
      <path class="cls-4" d="M67,11.26a8.11,8.11,0,0,1-7.08-7.08c0-.08-.1-.08-.11,0a8.09,8.09,0,0,1-7.08,7.08c-.07,0-.07.1,0,.11a8.07,8.07,0,0,1,7.08,7.08c0,.07.11.07.11,0A8.09,8.09,0,0,1,67,11.37C67.05,11.36,67.05,11.26,67,11.26Z"/>
      <path class="cls-4" d="M48,18.07V5.85a1.74,1.74,0,0,0-1.24-1.67H30a.44.44,0,0,0-.44.47l2.09,28a9.69,9.69,0,0,0,1.16,4,1.28,1.28,0,0,0,1.53.6A20.18,20.18,0,0,0,48,18.07Z"/>
      <path class="cls-3" d="M67.81,50.35H28.19a3.1,3.1,0,0,0-3.1,3.1V58a2,2,0,0,0,2,1.95H69a2,2,0,0,0,2-1.95V53.45A3.1,3.1,0,0,0,67.81,50.35Z"/>
    </g>
  </g>
</svg>
