<svg xmlns="http://www.w3.org/2000/svg" viewBox="0 0 96 60">
  <defs>
    <style>
      .cls-1 {
        fill: #9cadad;
      }

      .cls-2 {
        fill: #b4c9cc;
      }

      .cls-3 {
        fill: #cfe0e2;
      }
    </style>
  </defs>
  <g>
    <path class="cls-1" d="M61.25,10.22H76.7v7.85c0,3.54-1.43,6.76-4.39,9.84a36.88,36.88,0,0,1-9.77,6.92l-1.29-.57v-24M55.12,4.09V38.24l7.54,3.36c10.65-4.94,20.18-12.39,20.18-23.53V5.85a1.77,1.77,0,0,0-1.77-1.76Z"/>
    <path class="cls-1" d="M34.75,10.22v24l-1.29.57a36.88,36.88,0,0,1-9.77-6.92c-3-3.08-4.39-6.3-4.39-9.84V10.22H34.75m6.13-6.13H14.93a1.77,1.77,0,0,0-1.77,1.76V18.07c0,11.14,9.53,18.59,20.18,23.53l7.54-3.36V4.09Z"/>
    <g>
      <path class="cls-1" d="M62.8,41.6Q48.07,34,33.33,41.6q8.88,5.79,5.74,11.58c-1,1.85,18.82,1.69,17.86-.24Q54.11,47.27,62.8,41.6Z"/>
      <path class="cls-2" d="M54.48,45.9h-13a14,14,0,0,1-14-13L25.26,2.31A2.07,2.07,0,0,1,27.32.09H68.68a2.07,2.07,0,0,1,2.06,2.22L68.46,32.92A14,14,0,0,1,54.48,45.9Z"/>
      <path class="cls-3" d="M48,18.07V5.85a1.74,1.74,0,0,0-1.24-1.67H30a.44.44,0,0,0-.44.47l2.09,28a9.69,9.69,0,0,0,1.16,4,1.28,1.28,0,0,0,1.53.6A20.18,20.18,0,0,0,48,18.07Z"/>
      <path class="cls-3" d="M67,11.26a8.11,8.11,0,0,1-7.08-7.08c0-.08-.1-.08-.11,0a8.09,8.09,0,0,1-7.08,7.08c-.07,0-.07.1,0,.11a8.07,8.07,0,0,1,7.08,7.08c0,.07.11.07.11,0A8.09,8.09,0,0,1,67,11.37C67.05,11.36,67.05,11.26,67,11.26Z"/>
      <path class="cls-2" d="M67.81,50.35H28.19a3.1,3.1,0,0,0-3.1,3.1V58a2,2,0,0,0,2,1.95H69a2,2,0,0,0,2-1.95V53.45A3.1,3.1,0,0,0,67.81,50.35Z"/>
    </g>
  </g>
</svg>
